<svg xmlns="http://www.w3.org/2000/svg" viewBox="0 0 112.71 142.03"><defs><style>.cls-1{fill:#84e6f8;}.cls-2{fill:#bf4e30;}.cls-3{fill:#9add6f;}.cls-4{fill:#ba9fe2;}</style></defs><g id="Layer_2" data-name="Layer 2"><g id="phone"><path class="cls-1" d="M0,139.32V85.2q0-2.72,5.08-2.71H9.56q4,0,5.33,2.28l14.88,26.47L44.82,84.77q1.27-2.28,5.33-2.28h4.4c3.38,0,5.08.9,5.08,2.71v54.12c0,1.81-1.7,2.71-5.08,2.71H52.1c-3.38,0-5.08-.9-5.08-2.71v-35l-.33-.09L34.42,126.13A4,4,0,0,1,31,127.74H28.59a4,4,0,0,1-3.39-1.61L12.94,104.22l-.34.09v35q0,2.72-5.07,2.71H5.08Q0,142,0,139.32Z"/><path class="cls-2" d="M69.73,138.62V85.81c0-2.28,1.14-3.41,3.41-3.41h33q2.56,0,2.56,4.26V89.3q0,4.26-2.56,4.26H82.85v12.35h20.94q2.56,0,2.56,4.26v2.64q0,4.26-2.56,4.26H82.85v13.8h23.33q2.55,0,2.55,4.26v2.64q0,4.26-2.55,4.26h-33C70.87,142,69.73,140.9,69.73,138.62Z"/><path class="cls-3" d="M68,52.38c-1.64,0-2.17-1.33-2.3-3.37a35.63,35.63,0,0,1,0-4.14,4.08,4.08,0,0,1,1-2.22L94.45,1.78Q95.67,0,100.15,0h2.53q5.61,0,5.61,3V41.44h1.61q2.8,0,2.81,4.67V47.7q0,4.68-2.81,4.68h-1.61V62.85q0,3-5.61,3h-2.62q-5.61,0-5.61-3V52.38ZM94.45,41.44V20l1.15-.1L82,41.44Z"/><path class="cls-4" d="M53.87,62.45l-4.66-1.39a24.12,24.12,0,0,0,3-2.79q7.7-8.64,7.7-24.77T52.23,8.73Q44.54.11,30.08.1T7.88,8.73Q.14,17.36.13,33.5T7.88,58.27a25.63,25.63,0,0,0,15.18,8l27.26,8.1A4.57,4.57,0,0,0,56,71.33l1-3.2A4.57,4.57,0,0,0,53.87,62.45ZM18.74,17.78q3.87-5.35,11.34-5.36t11.29,5.36q3.83,5.37,3.82,15.72T41.37,49.26q-3.84,5.41-11.29,5.42a17.34,17.34,0,0,1-3.62-.37l-1-.29c-.13,0-.27-.05-.4-.08a12.25,12.25,0,0,1-6.35-4.68q-3.87-5.4-3.87-15.76T18.74,17.78Z"/><rect class="cls-4" x="26.57" y="32.29" width="1.51" height="7.22" rx="0.76" transform="translate(6.15 75.74) rotate(-114.72)"/><rect class="cls-4" x="29.22" y="28.2" width="1.51" height="7.22" rx="0.76"/></g></g></svg>