<svg width="112" height="112" viewBox="0 0 112 112" xmlns="http://www.w3.org/2000/svg">
    <g stroke="#FFF" fill="none" fill-rule="evenodd" stroke-linecap="round">
        <g stroke-linejoin="round" stroke-width="4">
            <path d="M52.64 59.335a40.727 40.727 0 0 0 8.68 6.618l3.233-3.233a5.09 5.09 0 0 1 5.37-1.145c2.31.861 4.71 1.46 7.153 1.781a5.091 5.091 0 0 1 4.379 5.091v7.637a5.092 5.092 0 0 1-5.55 5.09 50.375 50.375 0 0 1-21.967-7.814 49.433 49.433 0 0 1-8.476-6.796m-6.797-8.502a50.375 50.375 0 0 1-7.814-21.967 5.09 5.09 0 0 1 5.065-5.55h7.637a5.091 5.091 0 0 1 5.09 4.379c.323 2.443.92 4.843 1.782 7.152a5.09 5.09 0 0 1-1.145 5.371l-3.233 3.233M84 28 28 84"/>
        </g>
        <path d="M56.29 2c29.982 0 54.29 24.308 54.29 54.29s-24.308 54.29-54.29 54.29S2 86.272 2 56.29 26.308 2 56.29 2z" stroke-width="2.8"/>
    </g>
</svg>
