<svg width="41" height="47" viewBox="0 0 41 47" xmlns="http://www.w3.org/2000/svg">
    <g fill="none" fill-rule="evenodd">
        <g fill="#13253A">
            <path d="M17.233 22.561h-1.405A1.827 1.827 0 0 1 14 20.733v-1.405c0-1.01.818-1.828 1.828-1.828h1.405c1.009 0 1.828.818 1.828 1.828v1.405c0 1.01-.819 1.828-1.828 1.828M25.448 22.561h-1.405a1.827 1.827 0 0 1-1.828-1.828v-1.405c0-1.01.818-1.828 1.828-1.828h1.405c1.009 0 1.828.818 1.828 1.828v1.405c0 1.01-.82 1.828-1.828 1.828"/>
        </g>
        <path stroke="#13253A" stroke-width="2.8" stroke-linecap="round" stroke-linejoin="round" d="M9.02 37.61v7.87l9.37-7.87"/>
        <path d="M18.532 37.595h13.2a7.863 7.863 0 0 0 7.863-7.863V9.862A7.862 7.862 0 0 0 31.732 2H9.862A7.862 7.862 0 0 0 2 9.862v19.87a7.862 7.862 0 0 0 7.012 7.815" stroke="#13253A" stroke-width="2.8" stroke-linecap="round"/>
    </g>
</svg>
