<svg width="42" height="42" viewBox="0 0 42 42" xmlns="http://www.w3.org/2000/svg" xmlns:xlink="http://www.w3.org/1999/xlink">
    <defs>
        <path id="bz1gevk9ga" d="M0 0h41.5v41.582H0z"/>
    </defs>
    <g fill="none" fill-rule="evenodd">
        <g>
            <mask id="cqb5hrms2b" fill="#fff">
                <use xlink:href="#bz1gevk9ga"/>
            </mask>
            <path d="m12.697 33.183.042.11c.199.022.41.009.595.072a68.72 68.72 0 0 1 2.69.955c1.214.469 2.109 1.306 2.533 2.543.662 1.928 1.197 1.723 2.726 1.724.046 0 .093 0 .138-.007.522-.08.928-.331 1.156-.82.11-.237.192-.487.282-.734.473-1.29 1.337-2.2 2.614-2.713.514-.207 1.025-.424 1.536-.64.848-.358 1.728-.49 2.623-.264.533.135 1.027.422 1.56.556.4.1.936.238 1.232.06 1.324-.797 2.14-1.679 1.332-3.162-.706-1.294-.685-2.663-.06-4.015.206-.447.375-.913.565-1.368.495-1.184 1.308-2.075 2.526-2.494 1.855-.639 1.736-1.13 1.724-2.683 0-.046.001-.093-.004-.14-.064-.544-.319-.963-.821-1.203a6.083 6.083 0 0 0-.645-.254c-1.368-.472-2.31-1.384-2.835-2.732-.135-.345-.256-.697-.42-1.028-.743-1.494-.708-2.969.043-4.45.129-.254.23-.55.241-.832.055-1.394-1.761-2.606-3.007-2.003-1.136.55-2.305.838-3.53.42a21.33 21.33 0 0 1-2.6-1.083c-1.14-.566-1.806-1.554-2.183-2.752-.18-.573-.47-1.096-1.109-1.18a7.667 7.667 0 0 0-1.788 0c-.45.048-.767.376-.952.799a9.841 9.841 0 0 0-.25.647c-.479 1.348-1.385 2.275-2.714 2.795-.488.191-.967.403-1.452.6-.787.32-1.603.497-2.44.285-.592-.15-1.15-.433-1.744-.58-.4-.099-.938-.237-1.232-.058-1.309.8-2.156 1.683-1.325 3.164.58 1.032.7 2.185.31 3.32-.3.874-.663 1.731-1.071 2.56-.581 1.18-1.617 1.822-2.83 2.23-.868.293-1.166.744-1.17 1.664v.325c0 1.293.187 1.58 1.39 2.018.969.353 1.875.845 2.362 1.763.56 1.055 1.013 2.179 1.4 3.311.164.484.125 1.081.028 1.598-.116.612-.378 1.2-.606 1.786-.254.656-.19 1.238.31 1.751.161.167.326.33.49.493.708.706 1.19.76 2.126.38.719-.293 1.475-.493 2.214-.734zm19.145 4.097c-.71-.229-1.447-.4-2.125-.702-.66-.294-1.252-.347-1.897-.005-.379.202-.792.341-1.196.494-.48.181-.798.508-.963.994-.09.263-.176.528-.292.78-.799 1.736-2.157 2.665-4.062 2.73-.704.023-1.436.026-2.115-.133-1.566-.368-2.67-1.353-3.164-2.896-.283-.885-.835-1.324-1.653-1.701-1.106-.51-2.046-.536-3.192-.025-1.677.747-3.293.344-4.667-.9-.263-.238-.508-.497-.757-.751-1.387-1.417-1.763-3.34-.893-5.125.41-.84.379-1.549.049-2.417-.433-1.138-1.072-1.821-2.245-2.272C.916 24.677.053 23.205.007 21.315c-.017-.706-.016-1.437.143-2.118.36-1.537 1.33-2.624 2.826-3.116.912-.3 1.376-.853 1.766-1.71.503-1.1.513-2.025.013-3.154-.744-1.682-.351-3.3.89-4.68.226-.252.475-.485.716-.724 1.438-1.426 3.336-1.82 5.144-.938.879.429 1.604.352 2.496.018 1.126-.422 1.748-1.081 2.186-2.207C16.863.95 18.301.075 20.167.011c.72-.024 1.466-.022 2.16.138 1.536.354 2.624 1.328 3.117 2.825.306.93.872 1.398 1.742 1.793 1.089.493 1.996.494 3.105.002 1.679-.745 3.293-.358 4.673.88.264.238.508.497.757.75 1.409 1.438 1.782 3.356.896 5.163-.414.846-.344 1.552-.027 2.417.424 1.157 1.096 1.81 2.256 2.258 1.703.656 2.555 2.086 2.637 3.912.034.735.03 1.5-.132 2.211-.35 1.537-1.315 2.638-2.81 3.131-.948.313-1.411.897-1.814 1.781-.493 1.083-.467 1.977.009 3.067.735 1.685.37 3.307-.87 4.686-.855.95-1.769 1.828-3.108 2.044-.289.046-.581.067-.872.1l-.044.11z" fill="#13253A" mask="url(#cqb5hrms2b)"/>
        </g>
        <path d="M15.763 20.78c-.008 2.728 2.25 4.998 4.976 5.005 2.726.006 4.986-2.25 4.993-4.986.008-2.731-2.244-4.995-4.975-5.003-2.725-.007-4.986 2.25-4.994 4.985m-2.992.009c0-4.395 3.612-8.002 8-7.99 4.366.01 7.953 3.614 7.953 7.99 0 4.392-3.613 8.002-8 7.992-4.363-.011-7.953-3.619-7.953-7.992" fill="#13253A"/>
    </g>
</svg>
