<svg width="22" height="22" viewBox="0 0 22 22" xmlns="http://www.w3.org/2000/svg">
    <path d="M19.363 6.07c-.113.121-.235.24-.355.357l-3.432-3.432.007-.007c.332-.347.619-.648 1.073-.71.441-.061.811.046 1.1.32a35.975 35.975 0 0 1 1.636 1.635c.48.517.468 1.307-.03 1.837zM17.68 7.708l-9.268 9.27-3.391-3.393 9.268-9.27 3.391 3.393zM6.701 17.922l-3.934 1.312 1.314-3.932 2.62 2.62zM20.556 2.858l-.17-.17c-.43-.433-.877-.88-1.323-1.317C18.47.791 17.74.49 16.89.474h-.007a3.158 3.158 0 0 0-2.274.958L11.47 4.57c-2.733 2.734-5.558 5.56-8.335 8.342a1.35 1.35 0 0 0-.307.5c-.23.666-.454 1.346-.672 2.003l-.575 1.73c-.352 1.057-.703 2.113-1.052 3.17a.954.954 0 0 0 .105.856.858.858 0 0 0 .712.361c.177 0 .338-.054.48-.1a1670.77 1670.77 0 0 0 6.717-2.245c.208-.07.416-.198.57-.351a752.7 752.7 0 0 0 2.875-2.868l3.022-3.022c1.851-1.851 3.703-3.703 5.553-5.556 1.287-1.29 1.284-3.238-.007-4.533z" fill="#8BC34C" fill-rule="evenodd"/>
</svg>
