<svg width="89" height="67" viewBox="0 0 89 67" xmlns="http://www.w3.org/2000/svg" xmlns:xlink="http://www.w3.org/1999/xlink">
    <defs>
        <path id="a" d="M0 0h89v67H0z"/>
    </defs>
    <g fill="none" fill-rule="evenodd">
        <mask id="b" fill="#fff">
            <use xlink:href="#a"/>
        </mask>
        <path d="m81.621 5.9-.065-.191H7.448l-.063.188 37.12 32.287L81.62 5.9zm1.817 5.833c-.371.311-.592.49-.807.677C70.68 22.805 58.73 33.202 46.775 43.594c-1.672 1.453-2.866 1.452-4.519.016-11.998-10.43-23.993-20.863-35.99-31.294-.187-.162-.387-.31-.702-.56v46.257c0 2.374 1.02 3.403 3.373 3.403H80.03c2.42 0 3.409-1.002 3.409-3.453v-46.23zM89 7.163v52.683c-.051.098-.126.191-.15.296-.942 4.223-4.145 6.851-8.424 6.852-23.953.007-47.905.009-71.858 0-4.932-.002-8.559-3.645-8.562-8.596C-.004 41.801 0 25.204.013 8.607a9.5 9.5 0 0 1 .256-2.24C1.224 2.481 4.535.011 8.743.011 30.118.009 51.493.01 72.867.01c2.665 0 5.33-.032 7.994.013 3.546.06 6.687 2.45 7.748 5.827.137.435.261.874.391 1.312z" fill="#9ADD6F" mask="url(#b)"/>
    </g>
</svg>
