<svg xmlns="http://www.w3.org/2000/svg" width="25.034" height="25.037" viewBox="0 0 25.034 25.037">
  <path id="home" d="M24.862,10.89l0,0L14.647.675a2.3,2.3,0,0,0-3.26,0L1.179,10.883l-.01.011A2.3,2.3,0,0,0,2.7,14.82c.024,0,.047,0,.071,0h.407V22.34a2.7,2.7,0,0,0,2.7,2.7h4a.734.734,0,0,0,.734-.734V18.411a1.232,1.232,0,0,1,1.231-1.231H14.2a1.232,1.232,0,0,1,1.231,1.231V24.3a.734.734,0,0,0,.734.734h4a2.7,2.7,0,0,0,2.7-2.7V14.824h.377a2.305,2.305,0,0,0,1.631-3.934Zm-1.039,2.221a.833.833,0,0,1-.593.246H22.119a.733.733,0,0,0-.734.734V22.34a1.232,1.232,0,0,1-1.231,1.231H16.893V18.411a2.7,2.7,0,0,0-2.7-2.7H11.838a2.7,2.7,0,0,0-2.7,2.7V23.57H5.878A1.232,1.232,0,0,1,4.648,22.34V14.09a.733.733,0,0,0-.734-.734H2.822l-.034,0a.837.837,0,0,1-.577-1.429h0L12.424,1.712a.837.837,0,0,1,1.185,0l10.21,10.21,0,0A.84.84,0,0,1,23.823,13.111Zm0,0" transform="translate(-0.499)" fill="#13253a"/>
</svg>
