<svg width="24" height="24" viewBox="0 0 24 24" xmlns="http://www.w3.org/2000/svg">
    <path d="M11.967 22.26c2.783 0 5.566.005 8.349-.006.266 0 .556-.04.794-.148.728-.33 1.029-.947 1.029-1.725v-8.895c0-.731-.288-1.328-.828-1.816-1.372-1.237-2.737-2.48-4.105-3.72-1.35-1.224-2.71-2.436-4.045-3.676-.748-.695-1.783-.492-2.375.027-.691.606-1.367 1.23-2.047 1.848-2.066 1.876-4.118 3.767-6.204 5.62-.503.447-.7.944-.698 1.586.007 3.015.022 6.03-.008 9.044-.01.984.745 1.889 1.864 1.874 2.758-.037 5.517-.012 8.274-.012M11.914 0h.188c.076.017.15.044.227.05.89.07 1.665.42 2.326 1.006.918.814 1.818 1.648 2.727 2.472 1.44 1.308 2.882 2.614 4.324 3.921.377.342.763.672 1.126 1.027.835.82 1.167 1.845 1.167 2.995 0 2.751.003 5.503-.004 8.254 0 .318-.036.642-.097.954-.335 1.717-1.542 2.955-3.167 3.243-.345.06-.7.074-1.051.074-5.065.005-10.13.004-15.194.002-.266 0-.531-.012-.796-.032C1.865 23.82.347 22.41.074 20.608c-.026-.177-.05-.355-.074-.532v-8.912c.019-.1.045-.198.055-.299a3.81 3.81 0 0 1 1.268-2.514c.9-.822 1.806-1.637 2.708-2.457 1.77-1.608 3.537-3.22 5.312-4.823a4.024 4.024 0 0 1 2.04-.989c.177-.03.355-.055.531-.082" fill="#1A324F" fill-rule="evenodd"/>
</svg>
