<svg xmlns="http://www.w3.org/2000/svg" width="37.784" height="39.231" viewBox="0 0 37.784 39.231">
  <g id="Group_295" data-name="Group 295" transform="translate(-539.708 -1194.704)">
    <path id="Path_186" data-name="Path 186" d="M539.71,1214.486c0-9.238,5.865-17.085,14.406-19.179a18.02,18.02,0,0,1,17.279,4.532c.824.752.671.576-.007,1.265a10.87,10.87,0,0,0-.935.917c-.479.628-.8.275-1.2-.091a15.379,15.379,0,0,0-11.623-4.183,16.048,16.048,0,0,0-13.955,10.758,16.94,16.94,0,0,0,7.8,20.7,15.474,15.474,0,0,0,17.643-2.338c.855-.776.628-.877,1.552.005l.219.209c1.216,1.17,1.216,1.17-.1,2.306a18.665,18.665,0,0,1-29.41-6.923A19.6,19.6,0,0,1,539.71,1214.486Z" transform="translate(0 0)" fill="#1a324f"/>
    <path id="Path_187" data-name="Path 187" d="M568.579,1218.035c-2.184,0-4.369-.008-6.553,0a1.475,1.475,0,0,1-1.521-.932,1.455,1.455,0,0,1,1-1.977,4.646,4.646,0,0,1,1.1-.08q5.948-.008,11.9,0c.235,0,.471.011.7-.008a1.516,1.516,0,0,0,.352-.116,1.262,1.262,0,0,0-.167-.336c-.88-.925-1.8-1.816-2.639-2.775a2.867,2.867,0,0,1-.636-1.3,1.237,1.237,0,0,1,.737-1.32,1.3,1.3,0,0,1,1.509.144,4.968,4.968,0,0,1,.513.482q2.555,2.647,5.106,5.3c1.051,1.1,1.063,1.762.042,2.85-1.724,1.838-3.462,3.663-5.19,5.5a1.708,1.708,0,0,1-1.47.726,1.483,1.483,0,0,1-.881-2.475c.8-.95,1.7-1.813,2.537-2.732a7.24,7.24,0,0,0,.593-.865c-.327-.025-.655-.072-.982-.074C572.611,1218.032,570.595,1218.036,568.579,1218.035Z" transform="translate(-3.286 -2.273)" fill="#1a324f"/>
  </g>
</svg>
