<svg xmlns="http://www.w3.org/2000/svg" width="39.235" height="39.441" viewBox="0 0 39.235 39.441">
  <g id="Group_294" data-name="Group 294" transform="translate(-401.321 -1053.435)">
    <path id="Path_188" data-name="Path 188" d="M418.114,1053.462c3.571,0,7.142-.01,10.713,0a5.7,5.7,0,0,1,5.293,2.854,6.6,6.6,0,0,1,.808,3.394c-.007,2.183.007,4.366,0,6.549-.006,1.2.091,1.3,1.224,1.393,2.951.239,4.375,1.842,4.394,4.863.023,3.717.013,7.434,0,11.151-.007,2.793-.757,3.9-3.363,4.9-.568.217-.887.486-.852,1.128a11.658,11.658,0,0,1-.013,1.592c-.122,1.474-.988,1.984-2.257,1.266-1.579-.894-3.137-1.834-4.657-2.828a5.734,5.734,0,0,0-3.629-1.013c-1.341.084-2.692,0-4.038.027-2.621.06-4.793-1.307-4.936-4.53a4.287,4.287,0,0,0-.026-.529.618.618,0,0,0-1.028-.444,6.874,6.874,0,0,0-.907.829q-2.365,2.373-4.722,4.753a8.9,8.9,0,0,1-.892.85,1.293,1.293,0,0,1-2.219-.842,9.431,9.431,0,0,1-.051-1.589c-.006-.59.015-1.18,0-1.77-.019-.7.175-1.576-.165-2.061-.326-.465-1.216-.531-1.861-.765a5.842,5.842,0,0,1-3.593-5.569c-.032-1.592,0-3.186,0-4.779q0-6.107,0-12.213a8.991,8.991,0,0,1,.077-1.586c.542-2.98,2.131-4.912,5.988-5.012C410.97,1053.389,414.543,1053.462,418.114,1053.462Zm14.149,14.882h0c0-2.952.016-5.9-.005-8.856-.016-2.242-1.019-3.327-3.172-3.335q-10.984-.038-21.969,0c-2.047.007-3.085,1.112-3.122,3.212-.03,1.653-.007,3.306-.007,4.959,0,4.31-.02,8.62.01,12.93a2.83,2.83,0,0,0,3.029,3.127c.234.012.469,0,.7.01,1.395.084,1.825.53,1.877,1.983.027.767.007,1.535.034,2.3a1.488,1.488,0,0,0,.193.468,1.689,1.689,0,0,0,.456-.232c1.046-1.034,2.135-2.03,3.1-3.137a4.02,4.02,0,0,1,3.4-1.415c3.982.078,7.967.023,11.951.03a3.686,3.686,0,0,0,2.2-.46,3.027,3.027,0,0,0,1.328-2.727C432.25,1074.248,432.263,1071.3,432.263,1068.344Zm5.627,9.894h0c0-1.83,0-3.661,0-5.491a6.02,6.02,0,0,0-.057-1.234c-.2-.924-1.053-1.352-2.231-1.189-.909.126-.653.844-.662,1.376-.029,1.771.083,3.549-.047,5.311a8.452,8.452,0,0,1-.811,3.2,5.412,5.412,0,0,1-5.109,2.838c-2.694.041-5.39,0-8.084.014-1.266.006-1.353.075-1.416.807-.107,1.231.333,1.974,1.311,2.145a6.222,6.222,0,0,0,1.052.034c1.582,0,3.166.056,4.744-.017a5.155,5.155,0,0,1,3.141.89c1.084.7,2.205,1.337,3.316,1.992.311.183.561.127.606-.282.033-.292.011-.591.045-.883.139-1.218.55-1.6,1.806-1.695.175-.013.352,0,.527-.007,1.43-.09,1.847-.5,1.868-1.968C437.911,1082.135,437.89,1080.186,437.89,1078.238Z" fill="#1a324f"/>
    <path id="Path_189" data-name="Path 189" d="M516.5,1128.895a4.254,4.254,0,0,1,1.839-3.7,1.685,1.685,0,1,0-2.2-2.437c-.2.287-.27.677-.485.953a.913.913,0,0,1-1.056.4.886.886,0,0,1-.6-.949,2.857,2.857,0,0,1,1.219-2.305,3.475,3.475,0,0,1,3.785-.513,3.587,3.587,0,0,1,2.182,3.18,3.187,3.187,0,0,1-1.3,2.973,2.843,2.843,0,0,0-1.372,2.84c.049.826-.444,1.361-1.012,1.347s-.951-.542-1-1.38C516.493,1129.166,516.5,1129.03,516.5,1128.895Z" transform="translate(-99.372 -58.705)" fill="#1a324f"/>
    <path id="Path_190" data-name="Path 190" d="M537.454,1222.412a.978.978,0,0,1-1.954.039,1.1,1.1,0,0,1,1.025-1.036A1.123,1.123,0,0,1,537.454,1222.412Z" transform="translate(-118.332 -148.143)" fill="#1a324f"/>
  </g>
</svg>
