<svg xmlns="http://www.w3.org/2000/svg" width="23.306" height="33.477" viewBox="0 0 23.306 33.477">
  <g id="Group_106" data-name="Group 106" transform="translate(0.259 0.259)">
    <g id="Group_105" data-name="Group 105" transform="translate(0 0)">
      <path id="Path_149" data-name="Path 149" d="M62.39,28.8a1.288,1.288,0,0,0,1.287-1.287V5.15A5.156,5.156,0,0,0,58.527,0H46.039a5.156,5.156,0,0,0-5.15,5.15V27.81a5.156,5.156,0,0,0,5.15,5.15H58.527a5.156,5.156,0,0,0,5.15-5.15,1.287,1.287,0,0,0-2.575,0,2.578,2.578,0,0,1-2.575,2.575H46.039a2.578,2.578,0,0,1-2.575-2.575V5.15a2.578,2.578,0,0,1,2.575-2.575H58.527A2.578,2.578,0,0,1,61.1,5.15V27.509A1.288,1.288,0,0,0,62.39,28.8Z" transform="translate(-40.889)" fill="#fff" stroke="#fff" stroke-width="0.518"/>
      <ellipse id="Ellipse_66" data-name="Ellipse 66" cx="1.287" cy="1.287" rx="1.287" ry="1.287" transform="translate(10.507 25.822)" fill="#fff" stroke="#fff" stroke-width="0.518"/>
      <path id="Path_150" data-name="Path 150" d="M118.61,38.362a1.632,1.632,0,0,0-1.7-1.551H113.5a1.558,1.558,0,1,0,0,3.1h3.407A1.632,1.632,0,0,0,118.61,38.362Z" transform="translate(-103.916 -35.386)" fill="#fff" stroke="#fff" stroke-width="0.518"/>
    </g>
  </g>
</svg>
