<svg xmlns="http://www.w3.org/2000/svg" width="24.807" height="25.727" viewBox="0 0 24.807 25.727">
  <g id="Group_98" data-name="Group 98" transform="translate(-6008.097 -930)">
    <g id="Ellipse_66" data-name="Ellipse 66" transform="translate(6015 930)" fill="none" stroke="#707070" stroke-width="1">
      <circle cx="5.5" cy="5.5" r="5.5" stroke="none"/>
      <circle cx="5.5" cy="5.5" r="5" fill="none"/>
    </g>
    <g id="Group_97" data-name="Group 97">
      <path id="Union_1" data-name="Union 1" d="M8.631,12.358A16.794,16.794,0,0,1,1.975,11.35,4.054,4.054,0,0,1-.065,9a7.6,7.6,0,0,1-.39-3.4A8.018,8.018,0,0,1,.8,1.994,5.249,5.249,0,0,1,3.879-.247,7.663,7.663,0,0,1,5.755-.5,6.413,6.413,0,0,1,9.3.68l.055.033A6.354,6.354,0,0,0,11.9,1.738,6.354,6.354,0,0,0,14.452.713l.054-.032A6.414,6.414,0,0,1,18.052-.5a7.667,7.667,0,0,1,1.877.253,5.249,5.249,0,0,1,3.079,2.241A8.019,8.019,0,0,1,24.263,5.6a7.6,7.6,0,0,1-.39,3.4,4.054,4.054,0,0,1-2.04,2.345,16.793,16.793,0,0,1-6.656,1.008c-1.306,0-2.494-.069-3.273-.127C11.124,12.289,9.936,12.358,8.631,12.358ZM5.755.448A6.633,6.633,0,0,0,4.135.669C1.8,1.255.739,3.743.54,5.7c-.23,2.251.523,4.181,1.872,4.8a16.092,16.092,0,0,0,6.219.913c1.295,0,2.472-.069,3.233-.127l.04,0,.04,0c.76.058,1.937.127,3.232.127A16.093,16.093,0,0,0,21.4,10.5c1.349-.621,2.1-2.55,1.872-4.8-.2-1.953-1.26-4.441-3.595-5.027A6.638,6.638,0,0,0,18.052.448a5.421,5.421,0,0,0-3.013,1.036l-.054.032a7.225,7.225,0,0,1-3.019,1.171l-.061.007-.061-.007A7.225,7.225,0,0,1,8.823,1.516l-.055-.033A5.42,5.42,0,0,0,5.755.448Z" transform="translate(6008.596 943.369)" fill="#707070"/>
      <path id="Path_140" data-name="Path 140" d="M6016.22,955.313h9.836" transform="translate(-0.638 -0.127)" fill="none" stroke="#707070" stroke-width="1"/>
    </g>
  </g>
</svg>
