<svg width="41" height="41" viewBox="0 0 41 41" xmlns="http://www.w3.org/2000/svg" xmlns:xlink="http://www.w3.org/1999/xlink">
    <defs>
        <path id="3s619gcjda" d="M0 0h12v12H0z"/>
        <path id="w9qrenvnic" d="M0 0h18v10.421H0z"/>
    </defs>
    <g fill="none" fill-rule="evenodd">
        <path d="M20.79 2c10.377 0 18.79 8.413 18.79 18.79 0 10.377-8.413 18.79-18.79 18.79C10.413 39.58 2 31.167 2 20.79 2 10.413 10.413 2 20.79 2z" stroke="#13253A" stroke-linecap="round" stroke-width="2.8"/>
        <g transform="translate(15 9)">
            <mask id="q96fblx5ib" fill="#fff">
                <use xlink:href="#3s619gcjda"/>
            </mask>
            <path d="M9.738 6.15c.065-1.957-1.639-3.62-3.577-3.643-2.007-.023-3.672 1.674-3.682 3.61-.01 2.006 1.682 3.649 3.61 3.662 1.988.015 3.707-1.673 3.649-3.63zM6.153 1c.233.025.466.045.698.077 2.294.319 4.136 2.238 4.36 4.542.274 2.81-1.742 5.32-4.545 5.612-1.59.165-2.98-.318-4.133-1.447-.847-.83-1.365-1.829-1.496-3.007-.176-1.596.268-2.998 1.392-4.169a5.008 5.008 0 0 1 3.082-1.55c.188-.023.378-.04.566-.058h.076z" stroke="#13253A" stroke-width=".8" fill="#13253A" mask="url(#q96fblx5ib)"/>
        </g>
        <g transform="translate(12 21)">
            <mask id="1q54p86osd" fill="#fff">
                <use xlink:href="#w9qrenvnic"/>
            </mask>
            <path d="M9.058 1.286c1.248-.006 2.463.145 3.614.666a7.337 7.337 0 0 1 3.421 3.104 7.064 7.064 0 0 1 .96 3.574c0 .467-.267.802-.684.839-.477.042-.803-.212-.877-.705-.077-.508-.092-1.03-.214-1.526-.569-2.323-2.63-4.123-5.013-4.293-1.095-.078-2.207-.134-3.3.15-2.296.598-4.065 2.66-4.281 5.023-.021.23-.014.463-.05.69-.074.459-.41.703-.872.661-.402-.037-.681-.362-.68-.801.006-1.819.61-3.416 1.797-4.788 1.283-1.486 2.915-2.315 4.86-2.528.436-.048.88-.045 1.319-.066" stroke="#072742" stroke-width=".8" fill="#102740" mask="url(#1q54p86osd)"/>
        </g>
    </g>
</svg>
