<svg width="66" height="82" viewBox="0 0 66 82" xmlns="http://www.w3.org/2000/svg" xmlns:xlink="http://www.w3.org/1999/xlink">
    <defs>
        <path d="M8.546 9.502C2.85 15.838 0 24.922 0 36.761c0 11.838 2.85 20.924 8.546 27.26a28.306 28.306 0 0 0 16.756 8.856l30.09 8.913a5.044 5.044 0 0 0 6.27-3.389l1.049-3.518a5.026 5.026 0 0 0-3.387-6.252c-.004-.002-.009-.002-.013-.003l-.001-.006-5.144-1.525a26.42 26.42 0 0 0 3.34-3.08C63.168 57.687 66 48.599 66 36.757c0-11.843-2.832-20.93-8.494-27.26C51.844 3.168 43.693 0 33.054 0 22.416 0 14.246 3.166 8.546 9.502zm24.505 4.055c5.492-.003 9.645 1.966 12.457 5.904 2.813 3.938 4.221 9.704 4.221 17.3.003 7.596-1.404 13.38-4.221 17.352-2.817 3.967-6.97 5.952-12.457 5.952a19.02 19.02 0 0 1-3.992-.405l-1.08-.32c-.145-.043-.29-.052-.435-.08a13.53 13.53 0 0 1-7.01-5.152c-2.849-3.969-4.274-9.751-4.274-17.352 0-7.6 1.425-13.366 4.274-17.3l.006.005c2.846-3.933 7.017-5.901 12.51-5.904z" id="a"/>
        <path d="M6.21.077.486 2.705a.833.833 0 0 0-.41 1.103.835.835 0 0 0 1.105.407l5.725-2.628h.001a.835.835 0 0 0 .41-1.104A.831.831 0 0 0 6.21.076z" id="c"/>
        <path d="M.834 0A.831.831 0 0 0 0 .832v6.286c0 .46.373.833.834.832a.832.832 0 0 0 .835-.832V.832A.832.832 0 0 0 .836 0H.834z" id="e"/>
    </defs>
    <g fill="none" fill-rule="evenodd">
        <g>
            <mask id="b" fill="#fff">
                <use xlink:href="#a"/>
            </mask>
            <path fill="#B99FE1" mask="url(#b)" d="M-1.01 83.588h68.016V-1.008H-1.01z"/>
        </g>
        <g transform="translate(26.318 37.256)">
            <mask id="d" fill="#fff">
                <use xlink:href="#c"/>
            </mask>
            <path fill="#B99FE1" mask="url(#d)" d="M-1.126 5.42h9.651v-6.547h-9.651z"/>
        </g>
        <g transform="translate(32.104 30.933)">
            <mask id="f" fill="#fff">
                <use xlink:href="#e"/>
            </mask>
            <path fill="#B99FE1" mask="url(#f)" d="M-1.01 8.956h3.692v-9.972h-3.691z"/>
        </g>
    </g>
</svg>
