<svg xmlns="http://www.w3.org/2000/svg" xmlns:xlink="http://www.w3.org/1999/xlink" width="36.23" height="44.235" viewBox="0 0 36.23 44.235">
  <defs>
    <clipPath id="clip-path">
      <path id="Path_160" data-name="Path 160" d="M29.976-150.789h0a.433.433,0,0,1-.213.575l-2.978,1.368a.435.435,0,0,1-.576-.212.433.433,0,0,1,.213-.575L29.4-151a.435.435,0,0,1,.576.212" transform="translate(-26.169 151.041)" fill="#fff" clip-rule="evenodd"/>
    </clipPath>
    <clipPath id="clip-path-2">
      <path id="Path_159" data-name="Path 159" d="M-238-40.128H730.681V-520H-238Z" transform="translate(238 520)" fill="#fff"/>
    </clipPath>
    <clipPath id="clip-path-3">
      <path id="Path_163" data-name="Path 163" d="M32.326-153.158h0a.434.434,0,0,1-.434-.433v-3.271a.434.434,0,0,1,.434-.433.434.434,0,0,1,.434.433v3.271a.434.434,0,0,1-.434.433" transform="translate(-31.892 157.296)" fill="#fff" clip-rule="evenodd"/>
    </clipPath>
  </defs>
  <g id="Group_129" data-name="Group 129" transform="translate(-272.713 -29.457)">
    <path id="Path_157" data-name="Path 157" d="M10.4-178.176a7.22,7.22,0,0,1,6.242-2.947,7.155,7.155,0,0,1,6.216,2.947q2.106,2.948,2.107,8.635t-2.107,8.661a7.129,7.129,0,0,1-6.216,2.973,9.484,9.484,0,0,1-1.992-.2l-.538-.159c-.072-.021-.144-.026-.215-.041a6.751,6.751,0,0,1-3.5-2.571q-2.133-2.972-2.132-8.661t2.132-8.635m19.345,24.54-2.567-.761a13.11,13.11,0,0,0,1.664-1.538q4.239-4.74,4.238-13.606t-4.238-13.606q-4.239-4.74-12.2-4.74T4.41-183.147Q.147-178.407.147-169.541T4.41-155.935a14.123,14.123,0,0,0,8.36,4.419l15.015,4.449a2.517,2.517,0,0,0,3.129-1.691l.523-1.756a2.509,2.509,0,0,0-1.7-3.121" transform="translate(274.216 218.994)" fill="#fff" stroke="#14283f" stroke-width="3.3" fill-rule="evenodd" opacity="0.986"/>
    <g id="Group_114" data-name="Group 114" transform="translate(288.055 48.813)" clip-path="url(#clip-path)">
      <g id="Group_113" data-name="Group 113" transform="translate(-138.998 -194.137)" clip-path="url(#clip-path-2)">
        <path id="Path_158" data-name="Path 158" d="M25.054-152.156h5.02v3.407h-5.02Z" transform="translate(113.357 345.707)" fill="#fff"/>
      </g>
    </g>
    <g id="Group_116" data-name="Group 116" transform="translate(291.066 45.522)" clip-path="url(#clip-path-3)">
      <g id="Group_115" data-name="Group 115" transform="translate(-142.009 -190.846)" clip-path="url(#clip-path-2)">
        <path id="Path_161" data-name="Path 161" d="M30.892-158.3h1.921v5.19H30.892Z" transform="translate(110.591 348.616)" fill="#fff"/>
      </g>
    </g>
  </g>
</svg>
