<svg width="24" height="24" viewBox="0 0 24 24" xmlns="http://www.w3.org/2000/svg" xmlns:xlink="http://www.w3.org/1999/xlink">
    <defs>
        <path id="qdhjx306ga" d="M0 0h24v24H0z"/>
    </defs>
    <g fill="none" fill-rule="evenodd" opacity=".296">
        <g>
            <mask id="bdt7ehqnab" fill="#fff">
                <use xlink:href="#qdhjx306ga"/>
            </mask>
            <path d="M22.399 12c0-2.641.002-5.282-.001-7.923-.002-1.436-1.04-2.475-2.476-2.475-5.281-.003-10.563-.003-15.845 0-1.434 0-2.475 1.04-2.475 2.475-.003 5.282-.003 10.563 0 15.845 0 1.434 1.041 2.475 2.475 2.476 5.282.002 10.564.002 15.845-.003.23 0 .468-.026.69-.084 1.077-.281 1.784-1.218 1.786-2.364.004-2.65 0-5.298 0-7.948M.002 11.99c0-2.65-.003-5.3 0-7.949C.005 2.082 1.315.475 3.23.081a4.11 4.11 0 0 1 .818-.077C9.348 0 14.647 0 19.946.002c2.292.001 4.05 1.763 4.052 4.058.003 5.291.003 10.582 0 15.873-.001 2.307-1.761 4.064-4.072 4.065-5.282.003-10.565.002-15.848 0-2.323-.001-4.075-1.759-4.077-4.085-.002-2.64 0-5.282 0-7.924" fill="#1A324F" mask="url(#bdt7ehqnab)"/>
        </g>
        <path d="M10.385 9.062c.54 0 1.082.007 1.623-.003.455-.008.777-.338.79-.794a7.924 7.924 0 0 0 0-.55c-.017-.427-.338-.768-.76-.772-1.09-.01-2.18-.01-3.27 0-.425.003-.748.343-.766.768-.006.15-.002.3-.002.449.002.594.31.9.912.902.491.002.982 0 1.473 0m6.057-.262c-.633 0-1.266.003-1.899-.002-.142-.002-.212.028-.262.183-.336 1.034-1.202 1.669-2.29 1.679-1.05.01-2.098.007-3.148 0-1.117-.006-1.98-.634-2.33-1.693-.042-.127-.09-.175-.222-.17-.233.01-.467.009-.7.001a.798.798 0 0 1 .006-1.597c.224-.006.45-.007.674.002.136.005.198-.032.244-.175.341-1.046 1.207-1.68 2.308-1.688a211.33 211.33 0 0 1 3.148 0c1.104.008 1.972.638 2.31 1.683.052.16.128.18.266.18 1.274-.004 2.548-.007 3.822-.001.6.003.997.574.766 1.103-.143.329-.408.494-.77.495h-1.923M13.585 17.06c.541 0 1.082.008 1.623-.001.455-.009.777-.34.79-.796a7.924 7.924 0 0 0 0-.549c-.018-.427-.339-.768-.762-.772-1.09-.01-2.18-.01-3.27 0-.424.004-.746.343-.764.768-.007.158-.003.317-.002.475.003.55.317.872.863.876.507.004 1.015 0 1.522 0M7.547 15.2c.642 0 1.283-.004 1.924.002.135.001.197-.032.244-.174.34-1.047 1.207-1.68 2.308-1.689 1.049-.008 2.098-.008 3.148 0 1.103.008 1.97.639 2.312 1.683.045.136.097.187.239.18.224-.01.45-.007.674-.001a.802.802 0 0 1 .802.79c.005.444-.345.796-.81.807-.258.006-.565-.084-.76.028-.18.104-.23.424-.358.637-.449.745-1.109 1.172-1.983 1.19-1.116.022-2.232.019-3.348.002-1.028-.015-1.89-.665-2.21-1.646-.054-.164-.12-.215-.292-.214-1.266.008-2.532.008-3.798.003-.606-.003-1.002-.561-.779-1.095.139-.332.402-.501.764-.503.64-.002 1.282 0 1.923 0" fill="#1A324F"/>
    </g>
</svg>
