<svg id="user" xmlns="http://www.w3.org/2000/svg" width="20.888" height="25.037" viewBox="0 0 20.888 25.037">
  <path id="Path_180" data-name="Path 180" d="M93.062,12.06a5.835,5.835,0,0,0,4.264-1.767A5.835,5.835,0,0,0,99.092,6.03a5.836,5.836,0,0,0-1.767-4.264,6.029,6.029,0,0,0-8.527,0A5.835,5.835,0,0,0,87.031,6.03,5.835,5.835,0,0,0,88.8,10.294,5.837,5.837,0,0,0,93.062,12.06ZM89.836,2.8a4.561,4.561,0,0,1,6.452,0A4.36,4.36,0,0,1,97.625,6.03a4.36,4.36,0,0,1-1.337,3.226,4.561,4.561,0,0,1-6.452,0A4.359,4.359,0,0,1,88.5,6.03,4.359,4.359,0,0,1,89.836,2.8Zm0,0" transform="translate(-82.775 0)" fill="#1a324f"/>
  <path id="Path_181" data-name="Path 181" d="M20.838,254.475a14.894,14.894,0,0,0-.2-1.582,12.463,12.463,0,0,0-.389-1.591,7.857,7.857,0,0,0-.654-1.483,5.592,5.592,0,0,0-.986-1.285,4.348,4.348,0,0,0-1.416-.89,4.895,4.895,0,0,0-1.808-.327,1.835,1.835,0,0,0-.98.416c-.294.192-.637.413-1.021.658a5.849,5.849,0,0,1-1.321.582,5.13,5.13,0,0,1-3.232,0,5.832,5.832,0,0,1-1.32-.582c-.38-.243-.724-.464-1.022-.659a1.833,1.833,0,0,0-.98-.416,4.889,4.889,0,0,0-1.808.328,4.344,4.344,0,0,0-1.417.89,5.594,5.594,0,0,0-.986,1.285A7.872,7.872,0,0,0,.642,251.3a12.494,12.494,0,0,0-.389,1.59,14.793,14.793,0,0,0-.2,1.583c-.033.478-.05.976-.05,1.478A4.157,4.157,0,0,0,1.235,259.1a4.444,4.444,0,0,0,3.182,1.16H16.472a4.445,4.445,0,0,0,3.182-1.16,4.156,4.156,0,0,0,1.235-3.146C20.888,255.449,20.871,254.952,20.838,254.475Zm-2.2,3.561a2.992,2.992,0,0,1-2.17.756H4.416a2.992,2.992,0,0,1-2.17-.756,2.715,2.715,0,0,1-.779-2.082c0-.469.015-.932.046-1.377a13.342,13.342,0,0,1,.183-1.425,11.021,11.021,0,0,1,.342-1.4,6.409,6.409,0,0,1,.532-1.206,4.146,4.146,0,0,1,.725-.95,2.883,2.883,0,0,1,.942-.586,3.376,3.376,0,0,1,1.155-.223c.051.027.143.079.291.176.3.2.649.421,1.034.666a7.27,7.27,0,0,0,1.658.741,6.6,6.6,0,0,0,4.134,0,7.277,7.277,0,0,0,1.659-.742c.393-.251.731-.469,1.033-.666.148-.1.24-.149.291-.176a3.378,3.378,0,0,1,1.156.223,2.888,2.888,0,0,1,.942.586,4.134,4.134,0,0,1,.725.95,6.388,6.388,0,0,1,.532,1.206,11,11,0,0,1,.342,1.4,13.456,13.456,0,0,1,.183,1.425h0c.031.443.047.906.047,1.376A2.714,2.714,0,0,1,18.642,258.036Zm0,0" transform="translate(0 -235.222)" fill="#1a324f"/>
</svg>
